<svg xmlns="http://www.w3.org/2000/svg" xmlns:xlink="http://www.w3.org/1999/xlink" viewBox="0 0 256 256"><defs><style>.a{fill:none;}.b{clip-path:url(#a);}.c{fill:url(#b);}.d{fill:url(#c);}.e{fill:#fff;}</style><clipPath id="a"><rect class="a" width="256" height="256" rx="32"/></clipPath><linearGradient id="b" x1="128" y1="316.183" x2="128" y2="132.482" gradientUnits="userSpaceOnUse"><stop offset="0" stop-color="#fff"/><stop offset="1" stop-color="#29abe2"/></linearGradient><linearGradient id="c" x1="128" y1="256.105" x2="128" y2="107.309" xlink:href="#b"/></defs><g class="b"><rect class="c" width="256" height="256"/><polygon class="d" points="256 177.019 232.251 183.383 173.389 207.358 105.246 183.383 0 177.019 0 0 256 0 256 177.019"/><path class="e" d="M173.389,207.358l25.837-5.135,33.025-18.84L256,187.519V65.715L239.361,48.642H132.268V192.89ZM190.722,73.385h7.258v96.844h-7.258Z"/><polygon class="e" points="39.438 191.489 46.904 194.771 105.246 183.383 126.289 190.787 126.289 48.642 66.557 48.642 66.557 170.229 59.299 170.229 59.299 139.508 0 139.508 0 200.969 39.438 191.489"/></g></svg>