<svg xmlns="http://www.w3.org/2000/svg" viewBox="0 0 256 282.764"><defs><style>.a{fill:#fff;}</style></defs><path class="a" d="M14.551,210.381c0,6.283-.743,11.582-8.976,11.582a27.885,27.885,0,0,1-3.637-.308v-5.828a16,16,0,0,0,2.374.16c2.67,0,3.637-.764,3.637-4.768v-40.4h6.6Zm25.6,3.56c0,2.5,0,6.05.145,7.418H34.213c-.145-.838-.441-2.427-.441-2.957-1.262,2.575-3.485,3.561-6.306,3.561-5.642,0-7.865-5.225-7.865-11.2v-.678c0-9.229,5.938-12.038,12.758-12.038h1.19V192.6c0-3.253-.447-5.138-3.045-5.138-2.519,0-3.189,1.959-3.189,4.682v.764H20.791v-.677c0-5.533,2.072-10.375,9.937-10.375,7.049,0,9.423,4.165,9.423,10.214Zm-6.458-10.67H32.141c-3.787,0-6.234,1.59-6.234,6.74v.6c0,3.1,1.039,5.372,3.637,5.372,2.966,0,4.149-2.193,4.149-7.726Zm13.223-9.61c0-5.3,0-8.773-.078-11.2h6.306a24.739,24.739,0,0,1,.3,3.943,6.967,6.967,0,0,1,6.905-4.547c5.339,0,7.858,3.709,7.858,11.348v16.2c0,8.773-3.038,12.556-8.529,12.556a6.3,6.3,0,0,1-6.155-3.561v16.042h-6.6Zm6.6,14.527c0,4.238.664,7.639,4.077,7.639,2.966,0,3.933-2.341,3.933-6.346v-15.82c0-4-1.335-5.668-3.637-5.668-3.117,0-4.373,2.341-4.373,7.036Zm39.4,5.753c0,2.5,0,6.05.145,7.418H86.984c-.145-.838-.441-2.427-.441-2.957-1.263,2.575-3.486,3.561-6.307,3.561-5.642,0-7.865-5.225-7.865-11.2v-.678c0-9.229,5.938-12.038,12.758-12.038h1.19V192.6c0-3.253-.447-5.138-3.044-5.138-2.519,0-3.19,1.959-3.19,4.682v.764H73.561v-.677c0-5.533,2.072-10.375,9.937-10.375,7.05,0,9.423,4.165,9.423,10.214Zm-6.457-10.67H84.912c-3.788,0-6.234,1.59-6.234,6.74v.6c0,3.1,1.039,5.372,3.636,5.372,2.966,0,4.15-2.193,4.15-7.726Zm13.223-8.846c0-7.873,0-10.141-.079-11.964h6.307a24.68,24.68,0,0,1,.3,3.709c1.117-2.489,3.189-4.313,6.977-4.313,4.452,0,7.713,2.649,7.713,9.919v29.583h-6.674V193.131c0-3.622-1.19-5.138-3.564-5.138-2.894,0-4.374,1.516-4.374,7.639v25.727h-6.6Zm33.071-23.608h9.931c10.619,0,12.612,6.05,12.612,14.823v19.677c0,7.713-1.256,16.042-12.757,16.042h-9.786Zm6.669,44.714h2.67c5.424,0,6.463-3.327,6.463-9.155v-21.34c0-5.138-.894-8.391-6.463-8.391h-2.67Zm40.737-1.59c0,2.5,0,6.05.158,7.418h-6.089c-.145-.838-.447-2.427-.447-2.957-1.257,2.575-3.48,3.561-6.307,3.561-5.63,0-7.853-5.225-7.853-11.2v-.678c0-9.229,5.932-12.038,12.758-12.038h1.184V192.6c0-3.253-.447-5.138-3.044-5.138-2.525,0-3.19,1.959-3.19,4.682v.764H160.81v-.677c0-5.533,2.078-10.375,9.943-10.375,7.044,0,9.411,4.165,9.411,10.214Zm-6.451-10.67h-1.558c-3.782,0-6.234,1.59-6.234,6.74v.6c0,3.1,1.039,5.372,3.636,5.372,2.972,0,4.156-2.193,4.156-7.726Zm17.3-20.81c1.184,7.195,3.854,23.238,4.821,31.333h.072c.677-7.652,3.794-23.682,5.05-31.333h6.6l-8.155,38.9h-7.491l-8.009-38.9Zm40.521,11.582v15.512c0,8.317-4.011,12.408-10.765,12.408-6.9,0-10.607-4.091-10.607-12.334V193.821c0-8.095,4.386-11.964,10.837-11.964C227.668,181.857,231.534,186.17,231.534,194.043Zm-14.691-.382v16.19c0,3.635,1.111,6.062,4.083,6.062,2.67,0,3.927-1.972,3.927-6.136V193.661c0-3.327-.967-5.828-4.011-5.828C218.1,187.833,216.843,189.952,216.843,193.661Zm24.863,15.746v1.812c0,2.944.966,4.99,3.564,4.99,2.368,0,3.407-1.516,3.407-4.535s-.882-4.768-5.413-7.8c-5.194-3.4-7.635-6.2-7.635-11.73,0-6.2,3.19-10.288,9.641-10.288,6.971,0,9.568,4.165,9.568,10.744v1.664h-6.451V192c0-2.945-.894-4.387-3.117-4.387-2.151,0-3.045,1.59-3.045,4.005,0,2.5.822,3.634,4.446,6.062,6.234,4.078,8.687,6.8,8.687,13.232,0,7.27-3.419,11.053-10.318,11.053-8.154,0-10.087-5.3-10.087-10.818v-1.738ZM21.577,267.251v1.824c0,6.05-1.039,13.689-10.9,13.689-8.9,0-10.68-5.976-10.68-13.541V243.644c0-7.935,3.479-12.777,10.825-12.777,8.831,0,10.535,6.124,10.535,13.011V246H14.679v-2.883c0-3.622-.737-6.123-3.927-6.123-3.044,0-3.938,2.341-3.938,6.2v26.565c0,4,.821,6.887,4.083,6.887,3.19,0,3.939-2.723,3.939-6.887v-2.5ZM48.01,254.77v15.512c0,8.317-4.011,12.408-10.764,12.408-6.9,0-10.607-4.091-10.607-12.334V254.548c0-8.095,4.385-11.963,10.836-11.963C44.144,242.585,48.01,246.9,48.01,254.77Zm-14.69-.382v16.19c0,3.635,1.111,6.062,4.083,6.062,2.67,0,3.926-1.971,3.926-6.136V254.388c0-3.327-.966-5.828-4.011-5.828C34.576,248.56,33.32,250.679,33.32,254.388Zm22.644.764c0-7.873,0-10.14-.072-11.964H62.2a25.419,25.419,0,0,1,.3,3.709c1.112-2.489,3.19-4.312,6.971-4.312,4.446,0,7.72,2.649,7.72,9.918v29.583H70.51V253.858c0-3.622-1.184-5.138-3.564-5.138-2.887,0-4.373,1.516-4.373,7.64v25.726H55.964Zm30.969,26.934v-32.91H83.067v-5.988h3.866v-4.534c0-5.064,1.921-9.684,8.529-9.684a9.23,9.23,0,0,1,2.743.308v6.049a11.19,11.19,0,0,0-1.486-.148c-2.6,0-3.19,1.59-3.19,4.313v3.7h4.748v5.988H93.529v32.91Zm22.5-17.779v5.975c0,3.4.664,6.654,3.926,6.654s3.781-2.871,3.781-6.05v-.222h6.452v.222c0,4.239-.882,11.8-10.088,11.8-8.976,0-10.607-5.828-10.607-13.7V255.522c0-5.52,1.86-12.937,10.607-12.937,7.792,0,10.245,5.606,10.245,12.937v8.785Zm7.937-5.372v-4.387c0-3.56-.677-6.21-3.866-6.21-2.96,0-4,2.268-4,6.284v4.313Zm28.806-7.947c-4.518,0-8.082,1.811-8.082,9.376v21.722h-6.609V256.36c0-6.358,0-9.389-.072-13.172h6.306c.073.838.145,3.869.145,6.21,1.486-5.064,4.833-6.74,8.312-6.74Zm11.53,13.319v5.975c0,3.4.664,6.654,3.926,6.654s3.782-2.871,3.782-6.05v-.222h6.451v.222c0,4.239-.882,11.8-10.088,11.8-8.976,0-10.607-5.828-10.607-13.7V255.522c0-5.52,1.861-12.937,10.607-12.937,7.793,0,10.245,5.606,10.245,12.937v8.785Zm7.937-5.372v-4.387c0-3.56-.676-6.21-3.866-6.21-2.96,0-4,2.268-4,6.284v4.313Zm14.116-3.783c0-7.873,0-10.14-.073-11.964h6.307a25.419,25.419,0,0,1,.3,3.709c1.111-2.489,3.189-4.312,6.97-4.312,4.446,0,7.72,2.649,7.72,9.918v29.583H194.3V253.858c0-3.622-1.184-5.138-3.564-5.138-2.887,0-4.373,1.516-4.373,7.64v25.726h-6.608Zm49.283,14.293v.529c0,6.888-1.7,12.716-10.16,12.716-8.239,0-9.943-5.68-9.943-13.7V254.918c0-6.432,2.223-12.333,10.318-12.333,8.674,0,9.785,6.431,9.785,11.434v1.5h-6.6v-1.5c0-3.253-.447-5.681-3.346-5.681-2.513,0-3.48,1.972-3.48,5.828V270.96c0,3.031.592,5.976,3.48,5.976,2.682,0,3.346-2.045,3.346-5.9v-1.589Zm12.642-5.138v5.975c0,3.4.664,6.654,3.926,6.654s3.782-2.871,3.782-6.05v-.222h6.451v.222c0,4.239-.882,11.8-10.088,11.8-8.976,0-10.607-5.828-10.607-13.7V255.522c0-5.52,1.86-12.937,10.607-12.937,7.793,0,10.245,5.606,10.245,12.937v8.785Zm7.937-5.372v-4.387c0-3.56-.676-6.21-3.866-6.21-2.96,0-4,2.268-4,6.284v4.313ZM174,157.533l25.645-5.1,32.779-18.7L256,137.842V16.945L239.485,0H133.19V143.173Zm17.2-132.975h7.2v96.123h-7.2ZM41.051,141.783l7.411,3.257,57.906-11.3,20.887,7.349V0H67.968V120.681h-7.2V90.188H1.907v61Z"/></svg>